# xmcd CD database file
#
# Track frame offsets:
#	150
#	1526
#	23623
#	60494
#	75917
#	93564
#	118338
#	157164
#	169990
#	189509
#	207854
#	241530
#	265433
#	279829
#	296413
#
# Disc length: 4107 seconds
#
# Revision: 1
# Processed by: cddbd v1.5.2PL0 Copyright (c) Steve Scherf et al.
# Submitted via: CDex 1.96
#
DISCID=bc10090f
DTITLE=Muddy Waters - Live '76 - At Paul's Mall Boston
DYEAR=1976
DGENRE=Blues
TTITLE0=DJ Introduction
TTITLE1=Band Warm Up 1
TTITLE2=Band Warm Up 2
TTITLE3=Band Warm Up 3
TTITLE4=Boston "Muddy Waters Day"
TTITLE5=Caldonia
TTITLE6=Kansas City
TTITLE7=I'm You Hoochie Coochie Man
TTITLE8=Mad Love (I Want You To Love Me)
TTITLE9=Baby Please Don't Go
TTITLE10=Long Distance Call
TTITLE11=Mannish Boy
TTITLE12=Got My Mojo Working
TTITLE13=You Don't Have To Go
TTITLE14=Show End and Station ID
EXTD=YEAR: 1976
EXTT0=
EXTT1=
EXTT2=
EXTT3=
EXTT4=
EXTT5=
EXTT6=
EXTT7=
EXTT8=
EXTT9=
EXTT10=
EXTT11=
EXTT12=
EXTT13=
EXTT14=
PLAYORDER=
